<svg id="Calque_1" data-name="Calque 1" xmlns="http://www.w3.org/2000/svg" viewBox="0 0 730.6 641.4"><defs><style>.cls-1,.cls-8,.cls-9{isolation:isolate;font-size:166px;}.cls-1,.cls-3,.cls-7{fill:#fad05f;}.cls-1{font-family:Mistral;}.cls-2{fill:#e8e8e8;}.cls-4{fill:#010101;}.cls-5{fill:#f1f1f1;}.cls-6,.cls-9{fill:none;}.cls-6,.cls-7{stroke:#010101;stroke-width:0.91px;}.cls-6,.cls-7,.cls-9{stroke-miterlimit:10;}.cls-8{fill:#dfdfde;}.cls-8,.cls-9{font-family:FireBrathersPersonalUse, Fire Brathers;}.cls-9{stroke:#000;stroke-width:0.69px;}</style></defs><title>test1-add</title><text class="cls-1" transform="translate(73.5 305.1)">une activité</text><path d="M875.5,913.7c0,9.4-113.4,17.1-253.2,17.1s-244.6-11.2-269.6-21c-8.8-3.5,129.7-13.1,269.6-13.1,104.6,0,193.5-1.1,231.5,8.1C865.9,907.7,875.5,911.3,875.5,913.7Z" transform="translate(-144.9 -289.4)"/><ellipse class="cls-2" cx="458.5" cy="618" rx="253.2" ry="17.1"/><path class="cls-3" d="M616.2,612.3c-12.5-5.3-25.5-4.9-38.6-3.3-3.8.4-7.4,1.5-11.2,2.3-25.8,5.3-43.1,20.2-50.2,45.8-4.8,17.5-.7,34.5,5.6,51.2,1.3,3.6,6.1,10.8,7.5,14.1s.8,4.1,2.2,7.1a8.1,8.1,0,0,1-5.5-4.2c-1.6-3.2-3-6.5-4.5-9.7-5.3-10.7-7.8-22.3-10.8-33.7a71,71,0,0,1-1.5-27.1c2.2-17.2,10.1-31.4,26.2-39.7,9.9-5.1,20.6-7.9,31.7-9.4,8-1.1,15.9-2.5,23.9-2.4a89.5,89.5,0,0,1,29.4,5.5c6.2,2.3,6.2,2.4,8.1-3.8a10.9,10.9,0,0,0,.1,1.8c.3,6,2.2,7.3,7.8,5.1.8-.3,3.2-1.8,4-2.2a5.4,5.4,0,0,1-1.2,1.8c-1.9,1.7-5.8,1.1-5.1,4.2s3.7,2.7,5.3,4.5a7.5,7.5,0,0,1,.9,1.5,2.6,2.6,0,0,1-3.3.5,121.5,121.5,0,0,0-18.4-7.3C617.7,614.5,616.3,613.9,616.2,612.3Z" transform="translate(-144.9 -289.4)"/><path class="cls-3" d="M625,779.3a66.3,66.3,0,0,0-3.1,5.9c-1.4,4,.3,4.1,4.7,3.7,2.8-.2,4.1.1,6.9-.1s3.4.1,4.3,1.7c-2.2,2.3-5.2,1.8-7.7,1.9-21.7.4-43.4,3-65.2,2-2.4-.1-5.8,1.1-6.6-3,3.5-.9,4.4-4,2-6.8,5.3-4.4,5.6-8.3,2-14-8.4-18.1-19.6-34.6-30.1-51.6s-13.6-35.5-11.6-54.9A56.5,56.5,0,0,1,533,633.2c6.8-8.2,15.7-13.9,25.9-17.6,14-5.2,28.4-4.9,42.9-4.3,7.6.3,14.4,3.3,21.8,4.4,3.8.6,6.7,4.1,10.3,5.5,8.2,3.2,17.5,10.3,22.2,13.7.9,3.7,2,.2,2.7,3,0,.7-2,.5-.9,1.9,2.4,3.2,3.1,3.8,3.5,6.3,2.7-.2.8,26.6-.9,39.3a95.5,95.5,0,0,1-8.2,26.8,6,6,0,0,0-.4,5c1.2,2.9,0,7.5-1.2,9.6-5.5,10.1-11.9,19.7-18.1,29.4a173.1,173.1,0,0,0-8.7,16.5C623,775.1,622.6,777.4,625,779.3Z" transform="translate(-144.9 -289.4)"/><path d="M655.2,636.3c-.1.3-.7,2.2-.9,2l-1.6-1.2c-7.7-5.6-15.2-11.5-24.1-15.3-25.6-11-51.3-12.4-76.8-.1-18.6,8.9-27.9,24.7-30.6,44.6s3.2,38.5,13.9,55.5,20,30.9,27.8,47.6c.1.3.5.5.6.8l1.1,2.3c1.5,3,1.3,4.6,1.5,8s-.8,5-3.5,5.7-4.3-1.2-5.4-3.6c-3.3-7.8-5.6-16-9.9-23.5-1.8-3.2-3.5-6.4-5.5-9.5s-5-4.9-9-4l-.5.2-21.8,14.3c-2.8,1.8-3.6,3.3-1,6.4q15.8,19.1,33,36.5c4.8,4.9,6.9,9.6,5.2,16.1-.5,1.8-.5,3.6-1,5.4s.3,4.3-2,4.6a7.7,7.7,0,0,1-6.6-2.5c-1.6-1.6-.7-3.3,0-5.1,4.6-11.4,4.5-11.4-4.7-19.8s-19.9-18.4-28.2-29.2c-6.3-8.2-5.9-11.6,1.8-18.6,5.8-5.3,12.7-8.8,19.3-12.9s10-6,3.8-13.7c-1.6-2.1-12.2-22.7-15.6-34.8-11.1-39.9,13.1-76.6,50.9-83.8,11.6-2.2,23-4.4,34.8-2.9,4.1.5,8,1.6,11.9,2.4,1.6.4,3.6.9,4.1,2.8a1.7,1.7,0,0,1-.1,1.2c-1,1.9-2.7,1.8-4.6,1.1-16.7-6.5-33.3-3.2-49.7.9-14.2,3.6-25.3,12.6-33,22.3,4.4-4.5,9.9-10.7,17.2-15.2,9.4-5.9,19.8-8.1,30.4-10.1,7-1.4,14.1-1.5,21.2-1.4,3.1,0,5.8,1.4,8.8,2,11.4,2.4,22.8,5,33,11.3,4.3,2.6,8.3,5.6,13,7.7C654.8,632.4,655.7,634.1,655.2,636.3Z" transform="translate(-144.9 -289.4)"/><path class="cls-4" d="M659.6,644.8c-.7-1.6-3.3-4.6-5.4-6.5-.2-.8.1-3.1.6-2.8a1.1,1.1,0,0,1,.5.4,87.1,87.1,0,0,1,8.1,8.3,28.2,28.2,0,0,1,5.6,16.7c.3,7.5,1.6,15.2-1.3,21,1.5-2.4,1.5-6.6,1.4-10.9s.1-6.7-.1-10c-.1-1.6-.3-3.2,1.6-3.9,2.2,7.5,1.2,15.1.5,22.6-.3,3.2.7,4.6,3.6,5.1,17.2,2.9,33.3.1,47.9-9.8,4.8-3.3,5.7-8.8,7.4-13.8s1.9-7.7,2.8-11.5c.2-1,.8-2.2-.4-2.8s-2,.3-2.8,1c-3.6,3.2-7.2,6.6-11.5,8.9-1.6.9-3.6,2.8-5.2.7s.8-3.2,2-4.5a165.7,165.7,0,0,1,17.2-16.3,12.5,12.5,0,0,0,4.2-6.7c.7-2.6.7-8.1,6.3-4,1,.7,2.3-.4,3.2-1.2l7.1-6.4a4.2,4.2,0,0,0,1.3-4.5c-1.1-4.5.2-8.5,4.3-10.6,1.3-1.1,1.7-.9,1.9-.6,3.6.9,6.8,10.3,5.3,13.6a3.1,3.1,0,0,1-3.3,2c-4.6-.3-6.7,3.3-9.7,5.7-11.3,9-15,21.6-17.3,34.9-.3,1.5-.7,3-.9,4.5-3.3,17.2-10.6,24.2-28.1,27.4a132.9,132.9,0,0,1-32.7,1.5c-3.5-.3-5.1.7-6.1,4.2-5,17.9-14.3,33.8-23.9,49.5-6.8,11.3-14.5,22.2-19.8,34.3-1.6.5-3.3,1.2-4.6-.5s.1-4,.9-5.9c6.5-14.3,15.9-26.9,23.8-40.3,2.4-4,5.2-7.9,6.6-12.4s3.5-9.8,5.2-14.7c4.3-11.7,7.8-23.5,8-36.2.1-7.4.2-15.2-2.7-22A18.4,18.4,0,0,0,659.6,644.8Z" transform="translate(-144.9 -289.4)"/><path d="M557.3,792.5c12.3,2.1,24.5,1,36.8.4s24.6-3,37.3-3.1c3.1-.2,5,.2,5.4,2s6.2,4.3,5.7,6.2-4.1,3.8-7.6,3.5c-6.4.1-10.7,1.1-16.6,1.7l-2.4.4c-12,1-20.5,2.3-32.6,3.7-5,.3-10,1.1-15,1.8l-9.4,1.3a8.3,8.3,0,0,1-2.7.3c-2.8-.5-5.1-2.5-5.2-4.9s3.1-2.5,4.9-2.2c8.7,1.3,16.7-2.3,25.1-3.9H556.7c-1.9,0-3.7-.1-5.2-1.2s-2.4-2.5-1.8-4.3,2.1-1.6,3.5-1.6A28.4,28.4,0,0,1,557.3,792.5Z" transform="translate(-144.9 -289.4)"/><path class="cls-4" d="M620.6,903.1c1.7-.2,3.2-1.9,5.2-.8s2.9,4.4.3,6.3c-6.4,4.8-13.6,8-21.1,10.6-3.2,1.1-2.7-1.3-2.5-3.1.9-12.7,1.9-25.4,2.8-38.2s1.5-23.4,2.4-35c.2-2.9-1-3.9-3.7-3.7l-16.3,1.4c-3,.3-3.1,2.4-3.1,4.6,0,15.5,0,31,.1,46.5,0,2.4.1,4.9.1,7.3-.1,6.1-.1,6.2,5.6,4.4.5,3.7-5,9.9-8.5,9.5a3.2,3.2,0,0,1-3.1-2.8,7,7,0,0,1,0-3.8c3.7-10.5,1.5-21.5,2.4-32.2.7-7.9.5-15.9,1.3-23.8a25.5,25.5,0,0,0-.2-7.8c-.7-2.9.4-4.6,3.2-5.5,6.2.5,12.4-1.1,18.6-.9s5.7.2,5.5,5.4c-.6,18.2-.6,36.4.4,51.2-.4-10.1-1.2-23.6-.8-37.1.1-4.4.4-8.7.4-13.1,0-1.3-.3-2.9,1.9-2.8.1,20.7.1,41.4.2,62.1,0,1.7-1,3.9.8,5.1s3.2-1,4.7-1.8A12.1,12.1,0,0,0,620.6,903.1Z" transform="translate(-144.9 -289.4)"/><path class="cls-5" d="M616.3,612.3a100.4,100.4,0,0,1,24.2,9.4c7.5,4.6,15.1,9.1,21,15.9a37.9,37.9,0,0,1,9.3,19.4c0,3.8-.4,7.6,0,11.4.8,7.3-1.3,13.8-4.8,20.2-1.3-1.6-.4-3.2,0-4.7,3.4-11.2,2.4-22.2-1.2-33.1a29.4,29.4,0,0,0-4.3-9.1,38.2,38.2,0,0,0-5.1-5.8c-4.6-4.1-7.7-4.9-11.4-7.2A107.1,107.1,0,0,0,604.5,613c-23-4.2-44.1.2-63,13.7-5.9,4.2-11.7,9.3-15,16.3-.5,1.1-1,3.1-2.8,2s-.6-2.6.2-3.7c5.6-8.1,12.1-15.5,20.6-20.3a91,91,0,0,1,62-10.3C609.8,611.4,611.9,612.2,616.3,612.3Z" transform="translate(-144.9 -289.4)"/><path class="cls-4" d="M625.5,822.2c-17.7.1-34.9,4-52.3,6.9l-15.7,2.7a6.2,6.2,0,0,1-4.4-.8c-1-.7-2.2-1.4-2.1-2.8s1.7-1.5,2.8-1.7c28.6-5,57.2-9.8,86.3-9.8,1.1,0,2.8-.8,3.3.6s-1.1,2.3-2,3.2a5.9,5.9,0,0,1-4.6,1.7Z" transform="translate(-144.9 -289.4)"/><path d="M611.4,840c-1.3,1.9-1,4.1-1,6.2v53.3a20.3,20.3,0,0,1-.4,4.9c-.3-7-.6-14-1.4-21-1.5-13.2-.8-26.4,0-39.5.3-5.3-.7-6.3-6-5.7a157.4,157.4,0,0,1-16.8.8c-8.3,2.8-17,3-25.7,3.7-1.6-.5-3-1.3-2.7-3.1s1.7-2.1,3-2.5a18.7,18.7,0,0,1,4-.7c24.3-1.1,48.6-3.1,72.9-2.4a49,49,0,0,1,7.7.6c2.9.7,4.1,2.5,1.9,5.3a4.4,4.4,0,0,1-3.9.2c-9.7-2.9-19.5-2.9-29.5-2a2.2,2.2,0,0,0-2.1,1.9Z" transform="translate(-144.9 -289.4)"/><path class="cls-4" d="M640.6,805.3c1.9.7,3.4,1.9,2.9,4s-2.8,2.1-4.5,1.9c-11.7-1.2-23.3,0-34.9,1.3a305.9,305.9,0,0,0-41.6,6.9,27.3,27.3,0,0,1-4.9.6,3.4,3.4,0,0,1-3.7-2.1c-1-2,.8-2.6,2-3.4,6.9-1.5,14.6-2.1,21.5-3.1l26.4-3.7c11.2-1.4,18.2-1.8,28.6-2.2C634.9,805.4,637.4,804.8,640.6,805.3Z" transform="translate(-144.9 -289.4)"/><path class="cls-4" d="M560.1,842.7l25.7-3.7c-1.7,1-2.2,2.4-2.2,4.5-.1,19.1-.4,38.2-.6,57.3,0,2.6-2.2,4.3-2.5,6.7s-.4,3,1.1,3.6,1.4-1.5,2.1-2c2.4-1.6,5.5-2.4,6.6-5.5l3.6-2.7c1.9-1.3,3.9-1.1,5.2.8s.4,3.8-1.4,5.1c-5.7,4.1-12.1,6.8-18.6,9.4-3.4,1.3-3.4-.9-3.2-3.3.6-7.5,1.2-15,1.7-22.6s1.2-13.5,1.9-20.3,1-15.7,1.6-23.5c.3-3.8-1-5.4-4.9-4.7s-6,1-9,1.2S562.4,843.9,560.1,842.7Z" transform="translate(-144.9 -289.4)"/><path class="cls-3" d="M769.4,643.2c.9,4.7,2.1,9.5,2.7,14.2s-1.9,8.4-4.6,8.3-5.4-5.2-4.5-8.6a134.5,134.5,0,0,1,5.1-14.3C768.8,640.5,768.8,640.5,769.4,643.2Z" transform="translate(-144.9 -289.4)"/><path class="cls-6" d="M769.4,643.2c.9,4.7,2.1,9.5,2.7,14.2s-1.9,8.4-4.6,8.3-5.4-5.2-4.5-8.6a134.5,134.5,0,0,1,5.1-14.3C768.8,640.5,768.8,640.5,769.4,643.2Z" transform="translate(-144.9 -289.4)"/><path class="cls-3" d="M760.6,602.7c-.4.2,7.3-2.6,10.2-5.5.8-.8,2.3,0,2.2.5-1.2,4.4-.6,9.2-2.7,13.5-.9,1.9-2.4,4.4-3.5,5.1s-3.4,1.7-2.1.5,1.2-5,.7-5.6a3,3,0,0,0-2.4-1.4,2.2,2.2,0,0,1-1.4-3.3c1-1.8-1.3-2.4-2.4-2.3A2.2,2.2,0,0,1,760.6,602.7Z" transform="translate(-144.9 -289.4)"/><path class="cls-6" d="M760.6,602.7c-.4.2,7.3-2.6,10.2-5.5.8-.8,2.3,0,2.2.5-1.2,4.4-.6,9.2-2.7,13.5-.9,1.9-2.4,4.4-3.5,5.1s-3.4,1.7-2.1.5,1.2-5,.7-5.6a3,3,0,0,0-2.4-1.4,2.2,2.2,0,0,1-1.4-3.3c1-1.8-1.3-2.4-2.4-2.3A2.2,2.2,0,0,1,760.6,602.7Z" transform="translate(-144.9 -289.4)"/><path class="cls-3" d="M718.3,719.7a2.5,2.5,0,0,1-.1,1c-.3,2.1.1,4.5-2.5,4.6s-3.3-2.9-3-5.1,1.1-7.6,3.4-7.5S718.3,717,718.3,719.7Z" transform="translate(-144.9 -289.4)"/><path class="cls-6" d="M718.3,719.7a2.5,2.5,0,0,1-.1,1c-.3,2.1.1,4.5-2.5,4.6s-3.3-2.9-3-5.1,1.1-7.6,3.4-7.5S718.3,717,718.3,719.7Z" transform="translate(-144.9 -289.4)"/><path d="M611.4,840c-.6-3.1,1.7-2.8,3.4-2.7,6.6.1,13.3-.7,19.9.6a3.2,3.2,0,0,0,1.4.1c3.8-.2,7.6-.7,10.9,1.9-1.9,2.6-4.1,1-6.1.4-9-2.9-18.2-2.4-27.5-1.4A6.6,6.6,0,0,0,611.4,840Z" transform="translate(-144.9 -289.4)"/><path class="cls-3" d="M761.3,602.9c1.1.3,7.4,10.6,6.3,11.7a8.6,8.6,0,0,1-2.2,1.5A5.1,5.1,0,0,0,761,610c-1.9-.2-2.4-1.2-1.3-2.7s1.3-2.4-.5-3.2A4.7,4.7,0,0,1,761.3,602.9Z" transform="translate(-144.9 -289.4)"/><path class="cls-7" d="M758.8,909.6c-1.1,1.6,7.2.4,10.7.1,1.5-.1,3.8-1,4.2,1.3s-1.8,2.6-3.5,3c-4.4,1.1-8.9,2.2-13.5,1.7a151,151,0,0,0-36.8.7c-6.4.8-12.8.5-19.1.4-1.6,0-3.8-.2-3.8-2.3s2-2.6,3.6-2.8c3.5-.2,7.1-.8,10.5-.1,6.6,1.2,13,.3,19.5-.2,1.3-.1,3.2.1,3.3-1.7s-2.1-1.7-3.5-1.9l-5.5-.4c-1.1-.1-2.2-.6-2.2-1.9s1.3-1.9,2.6-1.9c8.2.2,16.4.2,24.6.8a23.7,23.7,0,0,0,9.9-.8,30.5,30.5,0,0,1,11.3-1.3c1.4,0,3,0,3.2,1.8s-1.2,2.3-2.6,2.6c-3.7.8-8.3-.3-11.2,2.3C759.7,909.3,759.2,909.1,758.8,909.6Z" transform="translate(-144.9 -289.4)"/><path class="cls-7" d="M688,906.6a36.3,36.3,0,0,1-4.4-.2c-3.7-.4-1.8-3.7-2.3-5.5s1.6-1.4,2.7-1.6,4.3-.2,6.3-1c6.1-2.5,10.3,1.9,15.2,3.9a1.5,1.5,0,0,1,1,1.8c-.3,1.3-1.4,1.5-2.5,1.6Z" transform="translate(-144.9 -289.4)"/><path class="cls-7" d="M523.5,914a25.3,25.3,0,0,1-3.5-.3,5.3,5.3,0,0,1-4.1-4.9c-.3-2.4,2.6-1.8,4.2-2.2,6.5-1.4,12.8-2,18.9,1.8,1,.6,2.5.8,2.3,2.3s-1.7,2.1-3.1,2.1A84.9,84.9,0,0,0,523.5,914Z" transform="translate(-144.9 -289.4)"/><path class="cls-5" d="M520.1,653.9c1.9,1.4,1.2,2.9.9,4.6-1,4.5-2.3,9.1-2.7,13.7-.9,10.5,2.1,20.3,5.4,30.1.4,1.2,2.3,2.9-.1,3.7s-2.8-.9-3.1-2.5c-1.4-6.6-3.7-14.2-4.4-20.3s-.7-6.2-.7-9.3C514.8,666.9,516.6,660.4,520.1,653.9Z" transform="translate(-144.9 -289.4)"/><path class="cls-5" d="M523.1,649.9c0,.7-.2,1.3-1,1.3s-1.6-.6-1.8-1.6.2-1.3.9-1.3S522.9,648.9,523.1,649.9Z" transform="translate(-144.9 -289.4)"/><path d="M563.4,751.3h-.5c-.3-.1-.6-.1-.8-.5s.2-.4.4-.5.9-.5.2-2-2.2-3.5-2.6-5.5c-.1-.5-.6-.2-.8-.5a.5.5,0,0,1,.2-.4c.4-.3.4-.6.1-1.1a111.3,111.3,0,0,1-5.7-10.8c-1-2.4-2.4-4.7-3.3-7.1s-3.1-6.5-3.7-10.1-1.9-4-2.9-6-3.5-6-4.5-9.3-2.4-3.9-3.6-5.9a29.2,29.2,0,0,1-2.5-5,24.7,24.7,0,0,0-1.9-3.6c-1.2-2.3-2.8-4.4-3.7-7-.3-.8,0-1.4,1.3-1.8s.6-.3.7-.7.2-.5.3-.5c1.9-.5,3.1-3.2,5.2-3s1.6-1,2.5-.9.4-.3.4-.4,1.2-2.7,1.7-4.1-.2-.9.7-1.3,1.7-1,2.5-.6,2.3,1,3.6,1.6c.3-1.1-.3-1.6,0-2.5a1.9,1.9,0,0,1,2.4-1.2c.7-2,1.3-2.3,3.2-1.6a.8.8,0,0,0,.2-.4c.3-1.8.3-1.8,2.4-1.8h.6c1.8-1.3,2.3-.3,2.8.4a68.7,68.7,0,0,1,5.3,10.9,65.4,65.4,0,0,0,2.8,6.6c.7,1.4,1.2,2.8,1.8,4.3s.5,1.2,1.5.9,1,.3,1.6.5c.6-1.7,1.1-3.4,1.7-5.1a3.1,3.1,0,0,1,.5-1.2,5,5,0,0,0,.2-5c-.1-.2-.1-.4-.4-.4s-2-.1-.2-1.3-.2-.4-.3-.6-.5-.7.2-1.2.8,0,1.2.2.8,1.7,1.1,2.6.8,3.8,3.1,4.3l.9.5c.8,1.2,2.4,1.4,3.4,2.5.4-.9.6-1.8,1.7-2.2s.3-.9.2-1.3c-1.1-3.5-2.1-7-3-10.6s-2-9.2-3-13.7v-.5c0-1.4.3-1.6,2-1.5s.2-1.6,1.3-2.1a2.1,2.1,0,0,1,2.4.1c.5-.5.4-.9.5-1.3a1.3,1.3,0,0,1,1.1-1,14.3,14.3,0,0,0,3.4-.6c.7-.2.9.3,1.2.7s.3,1.1,1,1.4a43,43,0,0,1,2-5.7,2.5,2.5,0,0,1,1.5-1.5c.8-.2,1,.2,1.4.4a15.6,15.6,0,0,1,3.4,3.4,17.2,17.2,0,0,1,.4-1.8c.3-.9.7-1.8,2.1-1.8a.9.9,0,0,0,.8-.5c.8-1,1.8-1.1,2.4-.3l.5.8.5.7c.9-.7,1-1.5,1.5-2.2a2.6,2.6,0,0,1,1.8-1.4c1-.1,1.1.4,1.2,1s.1.7.6.7,1.3.8,1.3,1.6c0,6.4,1.1,12.4,2.2,18.5.3,1.7.9,3.4.7,5.1s.7,3.9,1.5,5.6.3,2.3.3,3.5a114.2,114.2,0,0,1,.2,13.1c0,.7.2.8.7.5s.9-.1.9.7c0,3.9.2,7.8.2,11.8,0,2.1.3,4.1-.2,6.3s.5,1.4.9,1.7a1.5,1.5,0,0,1,.5,1.6L619,717.4c-.2,1.1-.4,2.2-.7,3.3s-.2,1.2.4,1.2.5.2.1.8a1.9,1.9,0,0,0-.2.8,35.8,35.8,0,0,1-1.1,7.9,3.2,3.2,0,0,1-.8,2.1c-.3.3-.1.9-.1,1.3s.2.5.4.5l1.7-.3c.3-.1.6.1.7.5s.1.9-.2,1-.8,1.3-.8,1.9c0,2.7-.8,5.6-1.4,8.5s-1,5.2-1.4,7.8a6.8,6.8,0,0,1-.7,2.7c0,.1-.1.3-.1.4-.3,3.5-1.7,7.1-2.6,10.6s-1.7,6.1-2.6,9.1c-.2.8-.2,1,0,1l4.8.3c.2,0,.3,0,.3.4a3.3,3.3,0,0,1-.3,1.5c-.3.7-.6.7-.7.7s-2.3,0-3.3-.3-1.2,0-1.7-.1-2.3.6-3.2.1-1.3,0-1.9,0-3.4-.7-5.1-.2a6.6,6.6,0,0,1-2.3.4,13.4,13.4,0,0,0-4,.1c-.8,0-1.5.3-2.2.3l-2-.2c-.3,0-.4.3-.6.3a8.6,8.6,0,0,1-4.2-.4c-.8-.2-1.3.4-2.2,0a3.3,3.3,0,0,0-1.9-.2l-2.5.4-1.1-.2c-.2,0-.4-.3-.8-.8s-.3-.6-.1-.5a4.1,4.1,0,0,0,2.7-.1.6.6,0,0,1,.6,0c.2,0,.1-.2-.1-.7s-1.8-3.5-2.8-5.2a49.8,49.8,0,0,1-2.9-5.6c-.6-1.3-1.4-2.7-2.1-4s-2.6-4.8-3.8-7.3-1.9-3.4-2.9-5.1S563,751.6,563.4,751.3ZM591,707.2a4.5,4.5,0,0,1-.1,3,2.7,2.7,0,0,0,1.7-1.3c.1-.8-.7-1.3-1.3-1.6H591c-1.7-1.9-2.5-1.7-3.1,1a.3.3,0,0,1,.1.2C588.9,707.3,590,707.5,591,707.2Zm1.4,58.6h0a87.7,87.7,0,0,1,.5,10.3c0,2.3.4,3.2,1.1,2.1a1.9,1.9,0,0,0,.1-.8v-5c-.1-2.3-.1-4.5,0-7a10.5,10.5,0,0,1,.6,3c.1-1.9.1-3.5.2-5s-.1-.5-.3-.5-2.5.1-3.7.4-1.7.7-2.6.2-.3.4-.2.9c.4,2.7.6,5.4.9,8.2,0,.3,0,.8.2.8a.6.6,0,0,0,.6,0c.2-.1.1-.6,0-1s-.4-3.5-.5-5.3.1-1.4.4-1.4l.9-.2c.6-.3.9.2,1.1,1.8a67.9,67.9,0,0,1,.5,9,14.8,14.8,0,0,0,.3,3.1c.1-1.7-.1-3.3-.1-4.9s-.1-5.2-.2-7.8C592,765.8,592,765.7,592.4,765.8Zm-44.9-69.9a8.6,8.6,0,0,0-.3-2.8c-.1-.4-.3-.9,0-1.3a3,3,0,0,0-.1-3.5c-1.1-2.1-1.9-4.4-3.3-6.3s-1.8-4.2-2.7-6.3a4.3,4.3,0,0,1,.4-3.9c.4-.8.9-1.6,1.2-2.4a3.1,3.1,0,0,1,2.8-1.9,4.4,4.4,0,0,1,2.6.4,14.9,14.9,0,0,1,5,5.3c1.8,2.8,2.6,6.2,4.2,9.1s1.4,3.6,3.7,4.4c.1-.9.1-1.6.2-2.4s-.5-1,.5-1.6a1.8,1.8,0,0,1,2-.1c.2.1.4.5.7.1s1.4-.8,2-1.2l-1.8-4.6c-2.4-5.8-5-11.4-7.7-16.9-.2-.4-2.1-.3-2.3,0s-2.6,1.1-2.8,2.6-.7.5-1.2.6l-1.9.2c.1.6.8,1.3-.7,2.4a3.6,3.6,0,0,1-3.5.5l-2.7-1.1a27.3,27.3,0,0,0-2,4.8,5.3,5.3,0,0,1-3.1,3.3c-.5.2-1,0-1.4.4s-3.3,1.8-4.9,3.1a6.1,6.1,0,0,1,1.8,2.4c.9,1.6,2.1,2.9,2.8,4.6a26.2,26.2,0,0,0,3.9,7.4,13.8,13.8,0,0,1,2,3.3c.4.9,1.4,1.4,2.2,2.2V696c0-.5-.4-1.1.4-1.6a1.8,1.8,0,0,1,2.2,0C546.4,694.6,546.9,695.3,547.5,695.9Zm39.7,66.6h0a31.6,31.6,0,0,0-.3-3.2c-.6-5-.2-9.2,1.6-12.7a9.3,9.3,0,0,0,1-2c.1-.6.3-.5.5-.6s.9.7,1.4,1.1a6.7,6.7,0,0,1,2.2,3.4,42.2,42.2,0,0,1,1.9,11.1,3.6,3.6,0,0,0,.4,1.9c.2.4.4.1.6-.2a1.3,1.3,0,0,0-.1-.9,1,1,0,0,1-.2-1.1,5.5,5.5,0,0,0-.1-3.2c-.4-1.6,0-2.7.3-4.2a8.1,8.1,0,0,1-.1,1.7c0,.5-.2,1.3.3,1s.3.4.2.8a8.2,8.2,0,0,0,0,2.7c.1.8-.1,1.9.3,2.5s0,.4-.1.6a.6.6,0,0,0-.1.6c.1.2.3-.1.3-.3a5.3,5.3,0,0,0,.1-1.3c0-2.5,0-5.1-.1-7.6-.2-4.4-.8-8.6-2.7-11.4a22.5,22.5,0,0,1-2.3-3.8,11.9,11.9,0,0,0-2.3-3c-.3-.3-.5-.3-.8.1a29.9,29.9,0,0,0-4.6,11.5c-.6,3.4.1,6.5.9,9.9.2-.5.5-.2.7-.6a9.8,9.8,0,0,1-.6-2.3,5.4,5.4,0,0,0,0-2.2c0-.1,0-.4.1-.4s.5-1.4.4-2.4.7-2.5,1.1-3.8a17.9,17.9,0,0,0,1.2-3.7c0-1,.2-1.6.9-1.9s1.3-.9,1.7.6h.1c.7-.3.8.6,1,1.4s.1.9.4.7.5.2.6.7,0,1.2.4,1,.7.2.7,1,0,.5.1.5.5,1.1.7,1.5a3.9,3.9,0,0,1,.6,2,.2.2,0,0,0,.2.2,1.1,1.1,0,0,1,.2.8,3.2,3.2,0,0,0,.3,2.4c-.4.1-.8,0-.7-.6s.1-2.1-.5-2.5.1-.9-.1-1-.7-1.9-1.3-2.5-1-2-1.6-2.9a8.9,8.9,0,0,0-1.6-2.2c-.6-.4-.9-.4-1.1.6s-1.1,2.8-1.5,4.3a.1.1,0,0,1-.1.1c-.6.7-.4,2.3-1,2.9v.2c.4,1.8-.4,2.8-.5,4.4a5.8,5.8,0,0,0,.2,2.3c.3.9.3,1.4-.2,1.6s-.3.4,0,.9a5.7,5.7,0,0,1,.7,2.5A7.3,7.3,0,0,0,587.2,762.5Zm5.1-93.8a.7.7,0,0,0,.3.6,18,18,0,0,1,1.9,2c.4-.6.2-1.4.8-1.8a1,1,0,0,0,.6-1.3c-.4-3.1-.9-6.3-1.3-9.4s-1.9-7.8-2.3-11.9a4.3,4.3,0,0,1,1.5-3.6c.2-.2.6-.4.6-.6s1.2-1,2-1.1.8.3,1.4,0c-1-1.2-1.4-2.7-2.8-3.6a1.1,1.1,0,0,1-.3.5c-.4,1.2-.7,2.5-1,3.7s-1.9,3.3-2.8,3.2-3.6.9-4.1-.9c-.7,1,0,2.2-1.8,2.6s-1.5-.7-2.6-.9a7.4,7.4,0,0,0,.3,1.7.7.7,0,0,1-.5.9c-1.2.4-.9.9-.8,1.4.9,3.3,1.3,6.9,2.2,10.2s1.2,8.2,2.4,12.1c.2.5-.6,1.3.1,1.7s.4-2.3,1.8-2.7,1.6.9,2.7,1.3c-.4-1.3,1.9-3.1-.4-3.7m-4.7,68.6a43.6,43.6,0,0,1,2.4-4.1c.5-.9,1.2-1.3,2-.8a5.7,5.7,0,0,1,1.4,1.3c1.8,2.1,3.1,4.9,4.5,7.3a18,18,0,0,1,2,7.1,47.2,47.2,0,0,1,.3,6.6c0,1.4-.1,2.9-.1,4.3s.1,1.4.5,1.2a1.6,1.6,0,0,0,.6-1.5c.1-2.4.3-4.7.5-7.1a26.4,26.4,0,0,1,5-14.5c.3-.4.4-1.5.9-1.1a3,3,0,0,1,1,.7,15.6,15.6,0,0,1,2,6.2c.1,1.4.5,2.7.5,4.3a3.4,3.4,0,0,0,.4-1.6,13.5,13.5,0,0,0,0-6c-.1-.4-.2-.6-.5-.5s-.9-.3-.9-1.5.2-1-.1-1.1-.4-.9-.4-1.6-.1-.7-.3-.8-.5-1-.6-1.9a8.3,8.3,0,0,0-.8-2.8c-.1-.2-.2-.3-.3-.1s-1,.7-1.1,1.8-.1.8-.3.9-.3.4-.2.8a2.8,2.8,0,0,1-.8,2.8,1.8,1.8,0,0,0-.6,1.3c-.1.7-.2,1.4-.6,1.5s-.5.5-.6,1.2-.4,1.8-1,1.6-.6.1-.8.8-1.6,2.1-2,.2-.5-1.6-1.2-1.7-1.3-.7-1.3-2.3a.6.6,0,0,0-.4-.6c-.6-.3-1-.8-.9-2a1.5,1.5,0,0,0-.4-1.2,1.3,1.3,0,0,1-.5-1.1c-.1-.4-.2-.6-.5-.7s-.8-.8-.8-1.5a2.6,2.6,0,0,0-.6-1.4l-1.7-2.2c-.5-.5-.4-.6-.8.1a13.1,13.1,0,0,0-.8,2.1,3.4,3.4,0,0,0-.2,1.4c.1.7-.1,1.2-.5,1.4s-.8,1.3-.8,2.3,0,1.1-.3,1.1S585.4,737.1,585.5,737.7Zm22.8-70.2a19.2,19.2,0,0,1,1.2-2.5q.9-1.5,1.8-.3a19.6,19.6,0,0,1,1.2,2.1c.6-1.6,1.4-3,1.2-4.5s-.8-5.4-1.4-8a136.9,136.9,0,0,1-2.3-14.5,18.8,18.8,0,0,0-1.2-3.6c-.7,1.5-1.5,2.2-2.8,2.2s-1,.3-1.1.9-.8,1.3-1.7,1-.8-.7-1-1.2c-1,1.3-.1,3-2.6,3.8a3.9,3.9,0,0,1,1.9,2.5,41.4,41.4,0,0,1,1.5,6.3c.8,4.6,1,9.5,2.6,13.8.1.3,0,.9.5.8S607.6,666.8,608.3,667.5ZM574,758.1h.2c-.2-1.1-.8-2.3-.9-3.4a19.2,19.2,0,0,1,.2-7.2l.4-1.2c.2-1.1.6-1.4,1.4-.9a17.4,17.4,0,0,1,4.8,4.6,15,15,0,0,1,2,4,68.9,68.9,0,0,1,2.4,9.2c.1.9.4.9.6.9s.1-.6,0-.9c-.5-3.2-1.1-6.4-1.6-9.6a18.3,18.3,0,0,1-.5-4,34.2,34.2,0,0,1,.4-4.6c0-.2.1-.5-.1-.6s-.3.1-.3.3-.3,1.7-.4,2.5a2.6,2.6,0,0,1-1.5,2.1c-.2.1-.3,0-.5-.3s-1-1.3-1.5-2.1-.3-.6-.6-.5-1.3-.7-1.8-1.8-1-1.8-1.4-1.9-1.4-1.7-1.9-2.8-.5-.8-1-.7.7,1.2.4,1.6-.1,1.9-.3,2.8-.6,1.8,0,3v.3c-.3.2-.2.6-.1,1.1a.8.8,0,0,1-.1.7c-.7.4-.6,1.4-.6,2.3s-.1,1.6.8,3.4ZM592.6,701a38.3,38.3,0,0,0-1.2-9c-.2-.7-.4-.8-1.1-.6-3.2,1.3-6.4,2.6-9.5,4.1l-9.4,4.4c-.8.3-.8.6-.6,1.2.8,2.7,1.4,5.5,2.4,8.1.1.2-.1.7.3.7l.4-.2c.2-.3-.1-.5-.2-.7a1.8,1.8,0,0,1,.3-2.5c.2-.2.2-.4.3-.6s1.8-2.4,2.2-3.9.1-.1.2-.2a9.9,9.9,0,0,0,2.9-3.2c.3-.7.9-1.6,1.7-1s.7.1,1.1-.3,1-.9,1.4-.1.1.5.5.4.8-1.6,1.7-1.7,2.2,1.4,3.7.9.4.4.5.8.1.5.4.5,1.6.1,1.5,1.8S592,701,592.6,701Zm17.6-4.2a.6.6,0,0,0,.3-.6c.4-3.5.7-7,1.1-10.5.1-.8-.4-.6-.8-.6-2.9.3-5.7,2-8.6,2.7l-5.9,1.7c.9,2.8,1,6.2,2.1,9a22.8,22.8,0,0,1,1.8-5.2c.2-.4.1-1.1.8-1.2s.9.3,1.2.8,1.5,2.6,2.2,4c.2-2,1.1-3.7,1.4-5.5s.4-.9.9-1,.9.5,1.1,1.1A25.3,25.3,0,0,0,610.2,696.8Zm-1.5,78c-.3,1.1-.5,2-.8,2.9s-.5,1.5-.1,1.3.5.8,1-1.2l3.8-13.7a45.2,45.2,0,0,0,1.9-8.7c.3-3,1.1-6.3,1.7-9.5a82.7,82.7,0,0,0,1.4-8.2c.1-1.2-.5-.6-.8-.6s-.4.6-.4,1.1a40.3,40.3,0,0,1-.5,4.6c-.5,2.5-1,5-1.6,7.5s-1.3,6.4-2,9.6c-.3,1.6-1.3,3.4-.9,4.8l-.2.7C610.5,768.5,609.4,771.8,608.7,774.8Zm-39.5-64.2c-.2-2.9-.3-5.9-1.5-8.5-.2-.5-.5-.2-.8,0-3.3,1.9-6.4,4.3-9.9,5.9-1.1.5-1.6,1-1.1,2.2a29.3,29.3,0,0,0,2.4,5.1,12.7,12.7,0,0,0,0-3.9,1.2,1.2,0,0,1,.5-1.1c.5-.3.7-.1,1.1.1a23.1,23.1,0,0,1,3.5,3.5c0-1.9.1-3.8.2-5.6s-.3-1,.4-1.4,1.1,0,1.5.3A17.2,17.2,0,0,1,569.2,710.6Zm44.4,39.1a38.7,38.7,0,0,0,1.4-7.1,60.1,60.1,0,0,0-.1-8.5,25.8,25.8,0,0,0-.4-3.9c-.1.3-.3.5-.3.7-.7,2.6-1.6,5.2-2.4,7.7a48.3,48.3,0,0,0-2,7.7l-.9,6a22.3,22.3,0,0,0-.5,3.6.8.8,0,0,0,.1-.4,67.3,67.3,0,0,1,3.1-11.1c.4-1,.9-1.4,1.1-.7a9.2,9.2,0,0,1,.5,2.6A20.9,20.9,0,0,1,613.6,749.7Zm-5,15.3h-.4c-.4-.2-.6.2-.7,1.3s-.6,3.5-1,5.3-1.1,4.3-1.4,6.4c-.1.5-.2.9,0,.9l1.5.3c.1,0,.2,0,.4-.6l3.2-12.5c.1-.3.2-.7,0-.6S609.3,764.6,608.6,765Zm-30.5,12.3.9,1.9c.2.4.3.5.4.5l1.4.3c.1,0,.2-.1,0-.6-1-2.7-1.9-5.4-3.1-8-.4-.9-.6-1-.9-.9s-.9.8-1.7.5-.1.1.1.4C576.3,773.3,577.1,775.3,578.1,777.3Zm-.7-37.3c.5,3.1,2,5.2,3.5,7.5.1.2.4.6.4.2a7,7,0,0,0,.4-2.8c-.3-1-.3-2-.6-3-.8-3.2-1.7-6.3-2.7-9.5-.1-.3-.3-.7-.5-.5s-1.4.5-2,1.1-.3.4-.2.9C576.4,735.9,576.8,737.9,577.4,740Zm-13.7,11.1a7.2,7.2,0,0,1,1.6,2.4c1.8,3.3,3.4,6.7,5.1,10.1a38.6,38.6,0,0,1,2.7,5.9,6.5,6.5,0,0,0,.8,1.7c1.6,2.5,2.9,5.1,4.3,7.8.2.3.3.8.5.8s0-.4-.2-.9c-1.9-3.8-3.8-7.5-5.3-11.3a63,63,0,0,0-3.5-7.5,39.5,39.5,0,0,1-2.3-4.6c-.7-1.6-1.2-3.2-1.8-4.8s-.3-.7-.6-.4A3.5,3.5,0,0,1,563.7,751.1Zm27.2-46.2-1.6-1.9a8.1,8.1,0,0,0-3.1-2.4c-1.9-.7-3.5-.4-5,1.6l-2.3,3a11.9,11.9,0,0,0-2.2,10.4l.3,1.5c.1.4.1.9.2,1.3.1-4.2.8-7.9,3.8-11.1S587.3,703.8,590.9,704.9Zm7.8,35.7a22.1,22.1,0,0,0,1.3-4.7c.1-3.4.2-6.8.1-10.1,0-.8-.2-1-.7-.8a4.4,4.4,0,0,1-2.2.5q-.7,0-.6,1.2c.1,2.6.5,5.1.5,7.8a6.1,6.1,0,0,0,.1,1.9Q597.8,738.4,598.7,740.6Zm5.3,38.2a2.6,2.6,0,0,1,.1-1.5l.6-3.1c.1-.6.1-.9-.1-1a4.7,4.7,0,0,0-1.7-.4c-.1,0-.4.1-.2-.7.6-2.9.9-5.9,1.3-8.8s.1-1.8-.6-1.9-1.8.4-2.6-.3-.3.1-.4.4-.1.8.1.9.3.4.3,1a72.2,72.2,0,0,1-.8,8c0,.3-.2.7-.1,1s.2.1.2,0,.1-.6.2-.9c.2-2,.3-4.1.5-6.1s.2-1.3.6-1.4l1.4-.2c.6-.1.8.3.6,1.7s-.2,2.3-.4,3.5c-.4,2.7-.8,5.4-1.1,8.1s-.1,1.9.3,1.9Zm-26.4-54.3h-.2a25.4,25.4,0,0,0,1.8,6.3.3.3,0,0,0,.1.2c-.6.8.1,1.5.3,2.1.9,2.9,1.6,5.9,2.6,8.8.8-4.5,1-9.3,2.6-14l-4.7,1.8c-.8.3-1.1,0-1.3-1Zm-7.6,31a32,32,0,0,0,.7,3.3,78.7,78.7,0,0,0,2.9,7.6c.2.6.4.8.7.6a6.5,6.5,0,0,1,1.5-1c.4-.2.3-.6-.1-1.5a53.5,53.5,0,0,0-4.1-7A10,10,0,0,0,570,755.5ZM619,707h0a13.6,13.6,0,0,1,.2-2c0-.5,0-.9-.5-.8l-2.2.5c-.2,0-.3.1-.4.4a23.4,23.4,0,0,1-.4,2.6c-.1,3.8-.3,7.6-.7,11.4-.1,1.4-.5,2.9.6,3.4s.3.9.7.4a2.4,2.4,0,0,0,.7-1.6C617.7,716.6,618.4,711.8,619,707Zm-65.8-17.4a4.3,4.3,0,0,0-.1-.5c-.6-2.6-2.1-4.8-3.2-7.1a61.9,61.9,0,0,0-4.6-8.4c-.3-.3-.5-.7-1.1-.6s-.9.1-1.2.5,0,.6.2.8a4.6,4.6,0,0,1,1,3.1,2.8,2.8,0,0,0,.3,1.3c1.8,3.6,3.9,7.1,4.9,11.2a2.2,2.2,0,0,0,.9,1.4c.4.2.7.3.9-.4A2.3,2.3,0,0,1,553.2,689.6Zm7.5,35-.8-1.5c-.2-.5-.4-.6-1-.4s-1.4.9-2.2,1.2-.9.8-.4,1.5l3.8,7c.8,1.5,1.2,3.1,2.1,4.5s.4.7.9.6l1.5-.5c.9-.4,1-1,.5-2.1s-2.1-4.2-2.8-6.5S561.3,725.9,560.7,724.6Zm6.2,12.7,1.4-.7c.3-.2.5-.3.2-1a40.8,40.8,0,0,1-1.7-4.2l-4.1-11.3c-.1-.3-.2-.6-.6-.6a3.4,3.4,0,0,1-1.8-.7c0,1.1.7,2,.6,2.9a3.4,3.4,0,0,0,.6,2l.6,1.1c1.1,1.6,1.2,3.7,2,5.5A31,31,0,0,1,566.9,737.3Zm34,12c.3,0,.4-.3.5-.6a30.5,30.5,0,0,1,3.1-7.1c.5-.8.7-.6,1.1-.4s.5.7.4,1.5a1.3,1.3,0,0,0,.1,1.1c.6.8.7,2.3.8,3.6a8.6,8.6,0,0,1-.1,3.9v.3c.5.5.2,1.6,0,2.5a3.3,3.3,0,0,0,0,1.4,8.7,8.7,0,0,1,0,2.8c-.1.4-.4,1.2,0,1.2s.6-.5.6-1.3l.3-2.6a45.8,45.8,0,0,0,.4-9.7,24.6,24.6,0,0,0-1.6-7.2c-.3-.7-.6-.7-1.1,0a28.5,28.5,0,0,0-3.7,7.4A6.1,6.1,0,0,0,600.9,749.3Zm-40.5-8.8c.2.3.3.5.6.4s1.1,0,1.2-.7a1.3,1.3,0,0,0-.7-1.2c-.3-.2-.4-.1-.5-.7a4.3,4.3,0,0,0-.6-2.6c-1.3-2.3-2.6-4.6-3.8-7s-.7-1.5-1.8-.9-1.4.5-.8,2,.4.6.5.9,1.3,1.5,1.8,2.3C557.7,735.5,559.7,737.7,560.4,740.5Zm51.7,6.3a3.3,3.3,0,0,1-.3.6,97.2,97.2,0,0,0-3.5,13.1c-.2.7,0,.7.2.8a4.7,4.7,0,0,0,1.7.1c.4,0,.6-.3.8-1.4s1-5.2,1.3-7.7A32.5,32.5,0,0,0,612.1,746.8Zm-38.8,11.7c-2-5.3-5.2-9.4-8.2-14,.8,2.9,1.6,5.4,2.3,7.9a13.5,13.5,0,0,0,1.9,4.5c-.1-.7-.1-1.3-.2-2s.3-1,1-.4a17.3,17.3,0,0,1,2.1,2.5A3.3,3.3,0,0,0,573.3,758.5Zm37.3-19.4.4-1.2a53.8,53.8,0,0,0,2.8-12.5c.2-2.7.2-2.7-1.6-2.4s-1.1.5-1.1,1.8c-.1,2.9-.5,5.8-.8,8.8a12.7,12.7,0,0,0-.4,2.6A11.1,11.1,0,0,0,610.6,739.1ZM567,740.3l-.9-1.9c-.2-.3-.3-.6-.7-.5l-2.5.9c-.2.1-.2.2-.2.4s.1.4.3.4,1,.7,1.3,1.3l1.5,2.6c1.1,1.8,2.3,3.5,3.4,5.2s.4.9.7,1.3.4.5.4.1a4.7,4.7,0,0,0-.2-2A46.9,46.9,0,0,0,567,740.3Zm22.4,26.3c.5,3.4.9,6.9,1.1,10.4s.2,2.6.9,2.2.2-.2.2-.8a26.2,26.2,0,0,1-.1-2.8,80.8,80.8,0,0,0-.5-8.5c-.1-.5-.1-.9-.4-.7S589.9,766.5,589.4,766.6ZM579.2,752a15,15,0,0,0-4.2-5.2c-.4-.3-.4.1-.5.4a24.2,24.2,0,0,0-.6,4.7,25.3,25.3,0,0,0,1.3,7,43,43,0,0,0,1.7,5.5c.3.6.5,1.4.8.7s.2,0,.2,0-1.6-2.8-1.4-4.5a1.5,1.5,0,0,0-.1-.6,17.7,17.7,0,0,1-.6-3c-.2-1.3-.3-2.7-.4-4a9.1,9.1,0,0,1,.4-3.8c.3-.9,1.1-.7,1.5.5s.1.4.2.5A7.4,7.4,0,0,1,579.2,752Zm25.8,6.8c.1.3-.4,1.2.1,1.1s1.3-1.4,1.2-3.1a8.8,8.8,0,0,1,.1-3.6.4.4,0,0,0-.1-.5c-.3-.3-.1-1-.1-1.7a22.6,22.6,0,0,0-.2-4.6c-.2-1.2-.8-2-.7-3.7s-.1-.8-.3-.4a10.5,10.5,0,0,0-1.5,2.6c-.3,1.1.3,1,.4,1.5.5,2.4.9,4.7,1.2,7.2A47.2,47.2,0,0,1,605,758.8Zm4.1-60c-.3,1-1.1,1.8-1.2,2.8s-.2,2-.2,2.9-.1,1.6-.1,2.4a126.7,126.7,0,0,0-.6,13.7c0,.4.1.4.3.4s1.4-.8,1.5-2.4c.2-4.6.2-9.2.6-13.9A38.2,38.2,0,0,0,609.1,698.8ZM574,720.2c1.2-.3,1.2-.3,1.4,1.3l.3,1.7c.4,1.7.7,3.5,1,5.3s.2.8-.2,1-.6-.3-.7-.7-.3-1.1-.5-1.6a30.1,30.1,0,0,0-2.1-4.9,1.2,1.2,0,0,0,0,1c.6,2.1,1.1,4.2,1.9,6.3s.7,2.1,2.3,1.5.5-.5.4-1.1-.8-4.1-1.3-6.2-1.3-4.8-2.1-7.2c-.2-.5,0-1.7-.9-1.6s-1.2.7-1.8,1-.4.5-.2.7a21.5,21.5,0,0,1,1.1,3.6c.1.4.3.9.8.5s.1-.6-.1-.9a.6.6,0,0,1-.1-.8c.1-.2.4-.4.6-.2s.5.3.4.8A.4.4,0,0,0,574,720.2Zm-26.4-49.6c-1.2,1.7-.3,2.5.2,3.3,2.2,3.4,3.7,7.4,5.6,11,.7,1.3.5,3.4,2.8,3.5h.2l1.2.5.4-.3C554.2,682.9,552.9,675.5,547.6,670.6Zm52,28.8.6-.7a1.7,1.7,0,0,1,2.3,0c.7.5.6,1.5.2,2.4s-.5,2.7-.4,4.1a51.9,51.9,0,0,1,.1,7.9,74.8,74.8,0,0,0,0,8.2c0,.5-.1,1.3.5,1.2s.6-.7.6-1.4.1-2.9,0-4.3a142.2,142.2,0,0,1-.2-14.6,10.7,10.7,0,0,0-2.2-7.2A15.2,15.2,0,0,0,599.6,699.4Zm-34.8,15.2a1.6,1.6,0,0,0,.4,1.5,33.2,33.2,0,0,1,2.5,5.4c1.3,2.9,1.9,6.1,3,9.1a1.6,1.6,0,0,1-.1,1.5.9.9,0,0,0,.2,1.3,6.2,6.2,0,0,0,1.7,1.1c.4.2.7,0,.5-.7-1.7-5.6-3.5-11.2-5.4-16.7-.1-.3-.1-.8-.5-.8S565.4,715.6,564.8,714.6ZM602.2,765c-.1,0-.2.1-.2,0s-.6.2-.7,1.4-.1,2.2-.2,3.3l-.6,6.1c-.1,1.9-.2,1.9.5,1.8s.4-.4.5-1.1c.3-3.1.8-6.2,1.3-9.3S603.1,764.9,602.2,765ZM599,645.8c-.3,1.3-1.5,2.7-.3,3.7s.1.5.1.7c1.4,5.2.6,11,1.6,16.3.2.9.3,1.8,1.2,2.3.3-1.1.8-1.9,2.4-1.3C601.3,660.3,601,652.7,599,645.8ZM583.5,772.2h0a18,18,0,0,0-.5-1.9c-.5-2.2-.5-2.1-1.4-1.9s-.2.4-.1.9a10.9,10.9,0,0,1,.5,1.7c.4,2.2,1.2,4.5,1.7,6.7.2.6.3.9.5.9h.3c.2.1.2-.2.1-.9S583.9,774.1,583.5,772.2Zm28.2-65.4c.4-.3.7-1.2,1.3-.9s1.3,2.8,1.1,3.9c-.5,2.9-1.3,5.7-1.6,8.6-.1.7-.1,1.4-.8,1.1s-.2.1-.3.4-.1,2,.7,1.8h.5c.7,0,1-.4,1.2-1.7s.3-4.7.5-7,.5-5.8.8-8.7c.1-1-.2-1.3-.9-1.1l-2.1.4c-.5.1-.7.4-.6,1.1S611.6,706,611.7,706.8Zm-16.6-.6a11.9,11.9,0,0,1,1.2,6.8,4.1,4.1,0,0,0,.4-2.4c0-.9.3-1.6,1.1-1.6s1.3,0,1.1,1a6.6,6.6,0,0,0-.1,2.4c.1,2.9-.5,6,0,8.9.1.4.1.9-.3,1.1s-.5-.3-.5-.6l-.6-3.3a14.4,14.4,0,0,0-.7-3.6l.3,6.7c.1,2.6-.4,2.7,1.8,1.9.6-.2.7-.6.6-1.4a48.6,48.6,0,0,1,0-5.4,68.9,68.9,0,0,0-.2-10.2c-.1-.7-.2-.8-.8-.7A7.7,7.7,0,0,1,595.1,706.2Zm.4-28.2c-.5.1-.7.5-1,.6a1.5,1.5,0,0,1-2-.3c-.6-.8-.4-1.7.2-2.7s1-.1,1.5-.1.3.2.8-.3c-1.7-.3-1.6-2-2.6-3-.6,1.8-1.1,3.5-.7,5.1a47.3,47.3,0,0,1,1.6,10.1c0,.1,0,.3.3.2a4.3,4.3,0,0,0,.1-1.6c0-.3-.2-.8.2-1s.7.1.9.4l.9,2.2c.1.3,0,.7.5.5a.8.8,0,0,0,.5-.9C596.2,684.4,596.1,681.2,595.5,678Zm.1,101h0a2.2,2.2,0,0,0,.8,0c.1,0,.2.1.3-.5l.3-3.7c0-.3.1-.7-.1-.6s-1-.5-1.5-.3-.7.1-.6,2.1-.3,2.5,0,3.1S595.3,779,595.6,779Zm-16-3.8,1.4,3.6c.2.6.3.6.5.6s.1-.1,0-.6c-1.3-4-2.6-7.9-4.2-11.8-.2-.4-.3-1-.5-1s-.1.6.1,1.1a9.8,9.8,0,0,0,.5,1.6l.2.7c-.2.3.1.8.3,1.3S579,773.7,579.6,775.2Zm-13.2-53.3h0c-.4-1.1-.9-2.2-1.4-3.3s-.4-.9-.7-.5-.9.9-.4,1.7a10.4,10.4,0,0,1,1.1,2.4c1.5,4.2,3,8.5,4.4,12.8.1.2.1.5.4.5s.2-.2.2-.4.1-.7,0-.9a38.2,38.2,0,0,0-1.3-3.6c-.3-.6-.7-1.5-.5-1.8a2.1,2.1,0,0,0-.1-1.9C567.6,725.2,567,723.6,566.4,721.9Zm11.3-43.1a19.9,19.9,0,0,1-.9,2.6,2.5,2.5,0,0,0-.1,2.2,18,18,0,0,1,1.4,5.3c.2,1.5.7,3,1,4.5s.7.6,1.1.2,1.6-.2,1.2-1.4-.5-2.5-.8-3.7-.7-3.1-1.1-4.6c-.7.3-.9,1.4-1.7,1s-1.1-.6-.9-1.4,1.2-1.1,2-1.2S579.2,679.4,577.7,678.8Zm4.2,94h0c-.4-1.4-.8-2.8-1.1-4.2s-.2-1.2.2-1.4a5,5,0,0,1,1.2-.2c.1,0,.4.3.3-.2a8.6,8.6,0,0,0-.3-1.7c-.1-.4-.3-.2-.5-.1a4.1,4.1,0,0,1-2.2.4c-.4,0-.4.2-.1.9.8,2.6,1.8,5.2,2.4,7.8.1.4.2.6.4.6s.3,0,.2-.6A8.9,8.9,0,0,1,581.9,772.8ZM594,646.9c3.1,6.7,2.6,14.5,4.3,21.5,1.7-.9,1.2-2,1-3.2a26.6,26.6,0,0,1-.7-3.9,39.8,39.8,0,0,0-2.2-12C596.1,648.3,595.8,647.1,594,646.9Zm-4.2,132.7c.3.2.4-.2.3-1.4s-.2-2.1-.2-3.1-.1-.8-.3-.7l-1.4.6c-.1.1-.1.3-.1.7l.3,2.8c.1.6.1.9.3.9Zm27.7-87.7c-.4,1.4-1,2.6-1.5,3.9a3.1,3.1,0,0,0-.4,1.5,38.2,38.2,0,0,1,.3,5.9c-.1.7.4.6.8.3s1.8-.1,1.8-1.4A57.8,57.8,0,0,0,617.5,691.9Zm-31.2,77.7-.6-3.6c-.1-.7-.4-.8-.6-.7s-.1.5,0,.8c.8,4.1,1.4,8.3,2.1,12.4.1.5.1,1,.4,1s.3-.1.2-.9C587.4,775.6,586.9,772.5,586.3,769.6Zm23.6-48.3c-.1,1.8-.7,2-1.4,1.9h-1.3c-.2,0-.4-.1-.5.3s.1.4.1.6a49.6,49.6,0,0,1,2.4,8c0,.2,0,.6.3.5C609.8,728.8,610.5,725.1,609.9,721.3ZM574,733.1c.1.3.1,1,.5.9s.1-.6.1-1-.5-1-.2-1.3.1-.7,0-1.1-1.6-3.2-1.8-5.2a30.7,30.7,0,0,0-1.4-5.2,29.9,29.9,0,0,1-1.5-4.2c-.1-.3-.1-1-.6-.7s-.9.7-.5,1.3,1.5,4,2.2,6S573,729.5,574,733.1Zm38.9-43.2a5.9,5.9,0,0,0-.3.7,87.5,87.5,0,0,1-1.4,10.1c-.1.3,0,.6-.1.9s.1.7.5.6a8,8,0,0,1,2.1-.5c.8-.1.9-.5.8-1.3C614.1,696.9,613.2,693.7,612.9,689.9Zm-53.4,3.2c-.3.4-.1.6,0,.8,1.7,2.4,2.4,5.3,3.4,8.1.2.4.3.4.6.2l1.4-.7c.4-.2.4-.5.3-.9-1.1-2.6-2.1-5.2-3.3-7.9A1.7,1.7,0,0,1,559.5,693.1Zm3.6,49.3c-.2-.6-.4-.7-.8-.4a3.8,3.8,0,0,1-1,.3c-.2.1-.3.2-.2.5.8,2,2,4,2.9,6,.2.4.4.3.7.3s.4,0,.3-.3C564.5,746.6,563.8,744.5,563.1,742.4Zm34.7,30.3c-.1,1.8-.2,3.5-.4,5.3s-.1,1.1.2,1.1.3-.4.3-1.1.3-3.7.4-5.6.3-6.3.4-9.5c0-.6,0-.8-.3-.8s-.2.6-.2,1C598.2,766.4,597.8,769.6,597.8,772.7Zm1.8-72.3c-.2.5-.5.8-.4,1.2a18.6,18.6,0,0,0,.6,3.4c1,2.5.9,5.3.9,8.2s0,5.6-.1,8.5c0,.7.1,1.3.6,1.2s.3-.9.3-1.4a52.4,52.4,0,0,1-.2-5.6c.1-4.1.2-8.3-.1-12.3,0-.4.1-.9-.3-1.2S599.9,701.3,599.6,700.4Zm5.9-.3c0,.1-.1.1-.1.2a112.4,112.4,0,0,0-.2,14.2c0,.3.1.7.1,1s.3.5.5.5.2-.5.2-.7c.3-4,.3-8,.8-12C607,701.5,606.5,700.7,605.5,700.1Zm-55.8,16.1c1,3,1.6,5.8,3.3,8.3a6.1,6.1,0,0,1,.9,1.8c.2.6.5.5.9.3s.5-.5.2-.9a6.9,6.9,0,0,1-1.2-3.1A8.9,8.9,0,0,0,549.7,716.2ZM570.1,745c.2-2.6-.1-5.2-.1-7.7,0-.5-.2-.5-.5-.4a12.9,12.9,0,0,1-2.1.7c-.5,0-.5.5-.3,1A55,55,0,0,1,570.1,745Zm20.1-55.5,1.4-.6c.4-.2.5-.4.5-.9a35.2,35.2,0,0,0-1.2-8.1c-.1-.3-.2-1.2-.6-.8s-1.6.5-1.4,1.6l.9,6.1A23.4,23.4,0,0,1,590.2,689.5Zm13-13.9a57,57,0,0,1,.7,9.2c0,.7.1,1.1.9.8s1.5-.5,1.3-1.5-.2-4.8-.4-7.2c-.1-.9,0-2.1-1.5-1.2S603.7,675.6,603.2,675.6Zm-7.9,17.9c0,3.1-.3,6.1-.1,9.1s.1,2.5,2,2,1.1-.5.8-1.7-1.5-4.1-1.9-6.3S595.6,694.6,595.3,693.5Zm20.9-15.8v-3.1c0-.9.3-2.2-1.3-1s-.9-.2-.9.7c-.1,2.6-.3,5.2-.3,7.8,0,.9.5.9,1.1.7s1.3-.2,1.3-1.2S616.1,679.1,616.2,677.7ZM587.3,681c-.5.2-.7.8-1.2.7s-.9.5-.8,1.2c.5,2.5.9,5.1,1.5,7.6,0,.2.1.3.2.3a1.5,1.5,0,0,0,1.6-1.5A75.5,75.5,0,0,0,587.3,681ZM569,688.8c-.4,1-1.5.9-1.6,1.5a4.1,4.1,0,0,0,.5,1.8c0,.1,0,.1.1.2.7,1.9,1.3,3.8,1.9,5.7s.5.8,1,.4,1.3-.3,1.1-1.2C571,694.5,570,691.8,569,688.8Zm13.2-.7h0c.3,1.2.5,2.3.8,3.5s.7.5,1.1.3,1-.2.9-1a60.2,60.2,0,0,0-1.3-7.4c-.1-.3-.2-.5-.6-.3s-1.8.9-1.4,2.8S582,687.4,582.2,688.1ZM595.9,734c-.1-3-.3-5.5-.4-8.1,0-.5-.2-.6-.5-.5l-2.7.8A70.5,70.5,0,0,1,595.9,734Zm-30.3-43.2c-.7.9-1.3,1.4-2.3.8a46.6,46.6,0,0,0,3.2,7.9c.1-.5-.3-.9.3-1.4s.9,0,1.5.1C567.5,695.7,566.6,693.3,565.6,690.8Zm49.6,3.4c.6-2.5,1.1-5,1.7-7.6.2-.7.4-1.9.1-1.9s-1.1-.5-1.7-.3a2.3,2.3,0,0,1-2,.1C614.5,687.6,614.4,691.1,615.2,694.2ZM606.9,675c.4,3.1.4,6.1.5,9.2,0,.4.2.5.4.5s1.7-.8,1.6-2a13.4,13.4,0,0,1-.1-2c-.1-2,0-4.1-.3-6.4C608.3,675.6,607.6,675.3,606.9,675Zm-9.4,6.9a24.2,24.2,0,0,0,.5,4.7c.1.6.2,1,1,.8s.7-.7.8-1.2a39.5,39.5,0,0,0-.9-8.5c0-.2-.3-.7-.5-.3s-1.4.1-1.2,1.1Zm-43.6,30a91.1,91.1,0,0,0-5.2-11c-.4.4-.6.9-1.1,1.2s-.7.9-.3,1.4,2,2.2,2.1,3.9c1-.7,1.1-.7,1.7.1a10.5,10.5,0,0,1,.8,1.1A36.2,36.2,0,0,1,553.9,711.9Zm22.4,55a.5.5,0,0,0-.6.3,1.6,1.6,0,0,1-.8.6c-.4.1-.6.5-.3,1.6s0,.4.2.7.3.2.4.1a2.5,2.5,0,0,1,1.5-.5c.4,0,.4-.5.1-1.4A7.8,7.8,0,0,1,576.3,766.9Zm18.3-50.1a1.6,1.6,0,0,1-.3.6c-.6,2.4-1.3,4.7-2.8,6.3a.6.6,0,0,0-.2.7.5.5,0,0,0,.6.4l2.7-.7a.4.4,0,0,0,.3-.6A50.8,50.8,0,0,0,594.6,716.8Zm-5.5,45.1c1.5.1,2.8-.6,4.4-.5-.4-.8-.3-1.9-.5-2.2s-.6.5-.9.6h-.2c-.8.3-1.6.3-2.5-1A5.6,5.6,0,0,1,589.1,761.9Zm-5.6-34.8c-1.9-1.8-4.3-2.2-5.4-5.3.5,2.2,1,4.4,1.7,6.5.2.5.4.4.6.3Zm17.8,5a30.9,30.9,0,0,0,1.4-4.3l1.5-4.4a5,5,0,0,1-2.5.7c-.3,0-.6.1-.6.8C601.3,727.2,601.3,729.6,601.3,732.1Zm-20.9,27.1a17,17,0,0,0-2.4-4.9c-.6-.8-.9-.7-.8.3a34.9,34.9,0,0,0,.5,4.4c0,.2,0,.5.3.5s.2-.2.1-.6a1.4,1.4,0,0,1,0-1.3c.3-.5,1-.3,1.5.4A4.1,4.1,0,0,0,580.4,759.2ZM554.6,703a1.6,1.6,0,0,0-.4-.7c-.6-1.1-1-2-1.5-3.1s-.9-.2-1.4,0-.3.6-.1.9c1.1,2.3,2.3,4.5,3.4,6.8.1.3.1.9.8.5s1.1-.5.7-1.3Zm44.2,73.7c-.2,2.2-.2,2.2.4,2.2h.1c.2.1.4-.3.4-1s.3-2.8.4-4.2-.1-.8-.3-.3-.2.6-.4.1-.5,0-.5.9A16.9,16.9,0,0,1,598.8,776.7Zm-21.5-84.9a13,13,0,0,0-.3-1.3c-.3-1.2-.6-2.3-1-3.5s0-1-.8-.5-1.1.2-.9,1.1a33.3,33.3,0,0,0,2.1,7.2c.3.6.5.3.9.2s.6-.4.5-.9S577.5,692.4,577.3,691.8Zm24.3,64c0,.4,0,1.1.2,1.1s.3.6.4,1.1a2.8,2.8,0,0,0,.1.9c.1.3.3.3.4,0a1.3,1.3,0,0,0,.2-.9c-.4-1.4.2-1.1.5-1.3a.6.6,0,0,0,.5-.6c.1-.5.1-1-.1-1.1s-.4-.9-.3-1.8-.3-1-.6-.5a2.6,2.6,0,0,0-.5,1.4c0,.7-.1,1-.4.9S601.7,755.3,601.6,755.8Zm.2-79.4c-1.5,1.1-1.4,1.1-1.2,2.8s.8,4.3.5,6.6c-.1.5-.1,1.2.7.9s1-.4.9-1.2-.2-4.2-.4-6.3A12.6,12.6,0,0,0,601.8,676.4ZM591,745.8c-.1.6,0,1.1-.1,1.4s-.1,1.3.4,1.5,2.8,5.2,2.2,8.8c.4.1.7.6,1.1,1.1C593.8,754,593.5,748.9,591,745.8Zm-10.8,10.6c-.1-1.4-1-2.1-1.1-3.3s-.1-.1-.2-.2a35.7,35.7,0,0,0-2.7-2.8,3.2,3.2,0,0,0-.2,2.3,6.9,6.9,0,0,1,.1,2c-.1.6-.1.6.4,1.6-.2-1.3.3-2.1.1-3.1s.3-.7.7-.4A13.7,13.7,0,0,1,580.2,756.4ZM560.8,700a10.4,10.4,0,0,0-.5-1.2,34.9,34.9,0,0,1-1.5-3.4c-.3-.9-.8-.3-1.2.1s-.1.6.1.9l1.5,3.4c.5,1.2.7,1.8,1.3,3.4s0,.9.6.4,1.3-.3.8-1.2S561.3,701,560.8,700Zm11.9-12.8c-.5.8-1.8.8-1.5,1.8s1.5,4.8,2.2,7.1c.1.4.4.6.8.3s.5-.5.3-.9a23.4,23.4,0,0,1-1-4A26.5,26.5,0,0,0,572.7,687.2Zm39.9-13c-.4-.2-.7.2-.9.2s-1.1.7-1.1,1.4c.1,2.3.1,4.5.2,6.8,0,.3-.3.9.4.9s.6-.5.8-1C612.7,679.6,612.3,676.9,612.6,674.2Zm-34,86.7s-.1,0-.1.2a.5.5,0,0,0,.3.5c.2.1.4.4.5.3s.5.2.7.9.4.7.6.5.3-.3.1-.9-.3-1,.1-1.1.2-.2.3-.3.1-.2,0-.4-.2-.3-.3-.2-.7-.2-1-1.1-.5-.6-.7-.4a.7.7,0,0,0-.1.9C579.5,760.8,579.2,761,578.6,760.9Zm37.8-29.4a42.5,42.5,0,0,0,1-6.9c.1-.8.1-1.3-.5-1.1s-1.1.2-1.3,1.4a3.1,3.1,0,0,0,.1,1.9C616.2,728.2,616.1,730,616.4,731.5Zm-26.5-14.2c-.3,1.2.4,1.3,1.1,1.4a3.2,3.2,0,0,1,.9.3c.8.4,1.1-.5,1.4-1.2s-.1-1-.5-1.3a6.4,6.4,0,0,0-1.8-1C589.9,715.1,589.7,715.3,589.9,717.3Zm-3.8-5.9a5.3,5.3,0,0,0-.9-4.5c-.2-.2-.3-.2-.6,0a3.2,3.2,0,0,0-.8,3.9c.3.6.5,1.1,1.2.5S585.8,710.9,586.1,711.4Zm1.6,41.6a.7.7,0,0,0-.2.6,32.4,32.4,0,0,0,.2,7.6c.2,1.4.2,1.4.8,1a9.2,9.2,0,0,1-.6-2.5c0-1,.2-1.7.7-2a.4.4,0,0,0,0-.5A8.1,8.1,0,0,1,587.7,753Zm-42.5-49.9c0,.2-.1.2-.1.2,1.1,2.6,2.8,4.8,3.3,7.7.1.4.3.2.6.1s1.3-.9.8-1.9-1-1.4-1.5-2.1S546.5,704.2,545.2,703.1Zm42.1,18c-.2,2-.2,3.8-.5,5.4a1,1,0,0,0,.7,1.1c.4.1.4-.5.3-.9a3.6,3.6,0,0,0-.2-1c-.1-.3-.2-.8.1-.9s.4.3.6.5.1,1,.5.5.8-.9.4-1.6Zm-31.2-20.3.5,1.1c.5,1.2.7,1.7,1.3,2.9s.1.8.8.5.4-.7.2-1.1a25.1,25.1,0,0,1-1.3-2.8l-1.8-3.8c-.1-.3-.1-.8-.8-.4s-.5.7-.3,1.1A28,28,0,0,1,556.1,700.8Zm26.5,77.4-.6-1.7-.3-.6c-.5-.2-.6,0-.2,1.4a14.2,14.2,0,0,0,.5,1.6c.1.2.1.4.2.5s.5.3.7.1S582.7,778.6,582.6,778.2Zm3.7-.7h0a2.9,2.9,0,0,0-.2-.9c-.1-.6-.2-.9-.4-.8s0,.5.1.9l.3,1.5c.1.5,0,.7-.1.7s-.2,0-.3-.6l-.3-1.3c-.1-.3-.2-.9-.3-.8s0,.5,0,.9.3,1.6.4,2.3.2.6.3.7.4-.3.6-.4.2-.5.1-1.2A8.7,8.7,0,0,0,586.3,777.5Zm-32.1-60.2c.4,1.6.8,3.3,1.1,4.9s.4,1.3,1.4.6l.6-.4c.4-.2.3-.5.1-.8S555.4,718.7,554.2,717.3Zm25-40.3c.7-1.7.5-2.3-.8-2.8s-.4-.1-.5.1-1.5,1-2.3,1-1,.1-1.2.8a4.9,4.9,0,0,1-.4,1.1c-.5.8-.3,1.3.4,1.6a2.4,2.4,0,0,1,.9.6c.4-1,1-2,.8-2.9s.1-.5.5-.7S578.5,676.4,579.2,677Zm27.4,84.6c-.2,1.6-.5,3-.7,4.5s-.7,3.4-1.1,5.2-.2.8,0,.9.2.2.3-.1l.3-1c.5-2.7,1-5.3,1.4-8C606.9,762.3,606.9,761.9,606.6,761.6ZM603,746.5c-.8,1-1,3.1-1.8,4.1a6.3,6.3,0,0,1-.9,3.5.7.7,0,0,0-.1.5,24.5,24.5,0,0,1-.4,3.8c0,.5-.2,1.1.1,1.1s.3-.7.4-1.1A45.9,45.9,0,0,1,603,746.5Zm-5.9,16.1a3.1,3.1,0,0,0-.2,1.6,66.1,66.1,0,0,1-.3,7.7,4,4,0,0,0,0,1.1c.1.2.2.1.4,0a1.5,1.5,0,0,0,.2-1c0-2.5.2-4.9.2-7.4A6,6,0,0,0,597.1,762.6Zm-10.2-50.5a5,5,0,0,0,2.9-1.6c.5-.6,1-1.3.6-1.9s-1.2-.4-1.7.2A7.1,7.1,0,0,0,586.9,712.1ZM583,766.4a9.7,9.7,0,0,0,.4,2.9c.4,1.4.7,2.9,1.1,4.3s.1,1,.3.9a1.5,1.5,0,0,0,.1-1.1c0-.1-.1-.2-.1-.3s-.7-2.8-1-4.2A24.1,24.1,0,0,0,583,766.4Zm27.9-2.2c.1-1.6-.3-2-1-1.9h-1.5c-.1,0-.2-.1-.3.2a2.8,2.8,0,0,0-.1.9c0,.5.2.4.3.3a2.2,2.2,0,0,1,1.9.5C610.4,764.3,610.6,764.5,610.9,764.2ZM591.5,759c.2,0,.4-.2.6-.4s.5-.3.5-.9a3.3,3.3,0,0,0-.7-2.1c-.4-.2-.8.5-.8,1.3v1.2C591,759,591.2,759.2,591.5,759Zm-1-2.4c-.1-1-.4-1.4-.9-.9s-.8.4-.8,1.1a2,2,0,0,0,.8,1.4c.9,1.1.9,1,.9-1Zm-14.3-16.7a34.5,34.5,0,0,0-1-4.3c-.1-.4-.3-.5-.6-.5s-1-.1-1.3.3.1.3.2.5S575.3,738.4,576.2,739.9Zm.4,17.6c-.3.4-.2.9,0,1.5a2.7,2.7,0,0,1,.3,1.4,5.1,5.1,0,0,0,.7,2.8l.4,1c.1.8.4.8.7,1A73.4,73.4,0,0,1,576.6,757.5Zm20,5.3c0-.4,0-.7-.3-.7s-.3.6-.3,1.1a64.7,64.7,0,0,1-.3,8.8c0,.4,0,.6.1.6s.2.1.2-.4C596.1,769.1,596.3,766,596.6,762.8ZM588,773.9c-.2-1.7-.5-3.4-.6-5.2a23.5,23.5,0,0,0-1-5.4C586.6,766.9,587.5,770.4,588,773.9Zm-7.3-59.3c-.6-.7-1.6-1.2-1.2-2.5s1.4-1.1,2.4-.9l-1.1-2.1a5.1,5.1,0,0,0-1.7,2.4c-.8,2.6-1.3,2.4,1.1,3Zm8.5-1.6c.8,1.4,1.7.7,2.6.1l.5-.2c.2-.1.5-.1.6-.5s-.1-.7-.4-.8a1.8,1.8,0,0,0-1.6,0A3.9,3.9,0,0,0,589.2,713Zm-8.7,43.9a50.6,50.6,0,0,1,2.1,6.6c.1.2.1.7.3.7s.2-.3.1-.8a19.4,19.4,0,0,1-.7-3.3c-.1-.4-.1-.8-.4-1a2.6,2.6,0,0,1-.6-1.3C581.1,757.2,580.9,756.9,580.5,756.9Zm-2.3,9.7c-.1.1,0,.3,0,.5.7,2.5,1.8,5.1,2.5,7.6.1.2.2.5.3.5s.1-.2,0-.6a20.9,20.9,0,0,1-.8-2.3A43,43,0,0,0,578.2,766.6Zm25.1,4.8c.3.3.5,0,.7-1l.3-1.7c.2-1.8.5-3.7.8-5.5a2.8,2.8,0,0,0,.1-.9c0-.3,0-.6-.2-.6s-.2.4-.3.7-.3,2.3-.4,3.4A26.3,26.3,0,0,1,603.3,771.4Zm11.4-105.8a5.9,5.9,0,0,0-.9,5c.2.5.3.6.8.4s.9-.2.5-.7-.1-.4.1-.4.6-.7.6-1.2A11.5,11.5,0,0,0,614.7,665.6Zm-21.5,88.7a10.6,10.6,0,0,0-.4-1.9c-.1-.3-.2-1-.5-.7a1.6,1.6,0,0,0-.7,1.2,1.4,1.4,0,0,0,.4,1.3l.8.9C593.3,755.5,593.2,754.9,593.2,754.3ZM565,709v4.2c.9-1.7,2-.7,3-1A12.9,12.9,0,0,0,565,709Zm17.8,50.7a22,22,0,0,0-3-7.2A7.2,7.2,0,0,0,581,756a6.8,6.8,0,0,1,1,2.1.8.8,0,0,0,.2.4C582.5,758.5,582.6,759.2,582.8,759.7Zm1.4,19.9a7.8,7.8,0,0,1-1.1-2.8c-.1-.4-.2-1-.5-.8s-.2.4,0,1a5,5,0,0,1,.4,1.3C583.7,779.9,583.7,779.9,584.2,779.6Zm4.7-24.9c.3-.5.9-.1.9-1.2s-.9-1.7-1.2-1.6-.4,1.2-.4,1.9S588.6,754.6,588.9,754.7Zm-6-35.7c-.8-1-1.5-.4-2.2.4l-.6.8c-.2.3-.5.5-.2.9a.5.5,0,0,0,.9.2A7.8,7.8,0,0,0,582.9,719Zm-36.8-49.4c-.5-.2-.9-.7-1.8-.3a8.7,8.7,0,0,0-1.5,3.1l2.6-.5A2.4,2.4,0,0,0,546.1,669.6Zm57.6,81.5a13,13,0,0,0-.3-2.2c-.1-.3-.2-.6-.4,0s-.9,2.8-1.2,4.3-.1.5.1.6.2-.1.2-.4C602.5,751.3,602.6,751.2,603.7,751.1Zm-7.4-107.9c-.5.2-2,2.4-1.8,2.5a23.4,23.4,0,0,0,2.4.9s.2-.1.2-.2a5.2,5.2,0,0,0,.7-2.1A1.4,1.4,0,0,0,596.3,643.2ZM545,696.6c0,.5-.1.8-.1,1.1a3.4,3.4,0,0,0,0,1c.1.5-1,1.1-.3,1.4s1.1-.5,1.6-.5l.6-.2c.7-.2.8-.5.3-.8S545.9,697.3,545,696.6Zm21.6-12.8-.3,1.8c-.5,2.4-.5,2.4,2,1.5C567.9,685.9,567.9,684.5,566.6,683.8Zm21,34.8a24.4,24.4,0,0,1,2.2,3.1c.2.2.3.7.6.5s.2-.7.2-1.1a1.2,1.2,0,0,0-.5-1.1A6.8,6.8,0,0,0,587.6,718.6Zm-7-6.8c-.3.1-.5.2-.5.5s.1.5.2.7l1.5,1.1c.2.1.4.5.6,0s.5-.9.2-1.3A2.2,2.2,0,0,0,580.6,711.8ZM610.3,668c-.7,1.2.2,1.9.1,2.9s0,.8.6.5,1.2.2,1.4-.5.3-1.6-.2-1.6S610.9,668.6,610.3,668Zm-47.4,48.1c-.1-.3-.3-.4-.6-.1s-1.6.9-1.1,2a.8.8,0,0,0,1.2.4A2.3,2.3,0,0,0,562.9,716.1Zm21.6-9.9c-.8-.1-2.8,1.5-2.9,2.1a.4.4,0,0,0,.1.3c.4.5.5,1.2,1.3,1.5C582.5,708.3,583.6,707.3,584.5,706.2Zm10.9,57.6c-.1,3-.2,5.9-.2,8.9A87.5,87.5,0,0,0,595.4,763.8Zm-19.9-47.3c-.2-1.9-.8-3.8-.3-5.8,0-.2,0-.4-.2-.4s-.4.2-.5.5.1,1.2-.5,1.6,0,.4.1.6S574.7,715.5,575.5,716.5Zm12.8-42.9a10.8,10.8,0,0,0-.5,1.9c0,.6-.1,1.6.8,1.5s1.2-.2,1.4-.7-.2-.9-.6-1.3Zm-7,4.1c-.3,1-.6,1.8-.9,2.7s-.2.5,0,.7.5-.1.6-.3.8-.4,1.3-.5.5.3.7-.2a.8.8,0,0,0-.2-.8ZM578.5,762c.3,2.3.5,2.6,1.5,2.1A3.6,3.6,0,0,0,578.5,762Zm22.8-5.5a10.1,10.1,0,0,0-.3,1.7c-.3,2.3-.3,2.3.7,2A10.2,10.2,0,0,0,601.3,756.5Zm-13.2-5.9a12.1,12.1,0,0,1,1.5-2.2c.5-.5,0-.9-.1-1.3s-.3-.1-.4.1A8.5,8.5,0,0,0,588.1,750.6ZM551.7,715a6.1,6.1,0,0,0-.6-3c-.5-.4-1,.4-1.5.3l-.2.2A10.9,10.9,0,0,0,551.7,715Zm35.1-6.4a13.2,13.2,0,0,1,.8-2.2c.2-.5,0-.8-.4-.8H586c-.2,0-.5,0-.6.3s.1.4.3.6A5.2,5.2,0,0,1,586.8,708.6Zm19.8-35.1c.6-.9.9-1.9,2.1-1.9s.2-.3.2-.5-.1-.4-.4-.2-.9,0-1.2-.4-.3-.9-.8-.9C605.7,671.1,606.6,672.2,606.6,673.5ZM560,712.8a17.1,17.1,0,0,0,0,3.2c.4-.3.5-.8.9-.8s.8-.8.3-1.3A2.2,2.2,0,0,0,560,712.8Zm24,7.3c-.1-.2-.3-.6-.5-.2a8.6,8.6,0,0,0-1.1,3.3c0,.3.1.6.4.4A9.7,9.7,0,0,0,584,720.1Zm1.3,37.5c.1,1.5.4,2.8.6,4.2s.4.6.5.5,0-.5-.1-.8a23,23,0,0,1-.6-2.8A1.4,1.4,0,0,0,585.3,757.6Zm.1-37.6a4.9,4.9,0,0,0-.9,3.4c.1.4.2.8.5.8s.3-.5.3-.8A18.4,18.4,0,0,0,585.4,720Zm-10.3-36.3c-.3-1.1-.2-2.5-1.5-3C573,683.4,573.3,683.9,575.1,683.7Zm14,66.7a2.4,2.4,0,0,0,.9,1.8c.2.1.4,0,.5-.3a4.1,4.1,0,0,0-.2-1.6c-.1-.4-.3-.1-.4,0S589.5,750.8,589.1,750.4Zm14.3-16.9c-.2-.5-.3-1.6-.6-1.4s-.6,1.5-.8,2.3.3.5.5.4S603.3,734.4,603.4,733.5ZM565.1,689c-.5-1-.4-2.3-1.4-3s-.1,1.2-.2,1.7S563.2,689.3,565.1,689Zm17,26.9a3.1,3.1,0,0,1-2.1.1l-.8.3q-.5.2,0,.6C580.1,717.7,581.5,717.3,582.1,715.9Zm21.2-46.1a3.8,3.8,0,0,0-.4,2.7c.1.2.1.7.5.4s1,0,1.7-.4A8,8,0,0,1,603.3,669.8Zm-33.1,12.5c-1.1,1.4.2,2,.1,3.1l1.4-.5A4.1,4.1,0,0,0,570.2,682.3Zm-20.5,14.8c.5-.5,1.6-.1,1.6-.9a2.7,2.7,0,0,0-1.3-2.4C549.8,695,549.8,696,549.7,697.1Zm9.7-8.4c-.1.6-.2.8-.2,1s-.2,1.5,1.3,1.3.4.5.9.1S560.2,689.7,559.4,688.7Zm29.7,11.4,1.4,1.5c.4.4.7,1,1.2,1.2s.3-1.1-.4-1.1-.7-.6-.7-1.2.2-.8,0-1.2S589.9,700.1,589.1,700.1Zm4,13.5c.8.1,1.1-.3.9-1.3s-.3-1.3-.5-1.9-.6-1.2-1.4,0C594.1,711.2,593.9,711.8,593.1,713.6Zm5-39.3c-.9-.6-.9-1.9-1.7-2.5C595.4,674.6,595.4,674.6,598.1,674.3Zm7.3,52.7a2,2,0,0,0,.1-2.5c-.2-.3-.3-.3-.4.1A2,2,0,0,0,605.4,727Zm2.9-30.1c-.4-.9-.8-1.8-1.3-2.7a6.3,6.3,0,0,0-.6,2c0,.2-.1.6.2.5S607.6,697.1,608.3,696.9Zm-4.1,61.5c0-.4.2-1.3,0-1.3s-.6,1.1-.7,2,0,.8.3.8S604,758.9,604.2,758.4Zm-20.5,6.8h-.3c.5,2.4,1,4.7,1.6,7.1C584.6,770,584.1,767.6,583.7,765.2Zm3.3-47.9,1.4.3c.3,0,.6.5.7-.1s0-1.2-.5-1.2A1.5,1.5,0,0,0,587,717.3Zm13.1-46.4a14.3,14.3,0,0,1-.8,2.2c-.1.4-.1,1,.4.8s1.1-.3,1.1-1.1A2.6,2.6,0,0,0,600.1,670.9Zm7,27.3c-.4-.1-.7.1-.7.6s.1,1.3.7,1.3.7-.6.8-1.1S607.5,698.1,607.1,698.2Zm-31.2,9.6H575c-.3,0-.6-.6-.9-.1s.2.7.4,1.1.7,1,1.2-.3S575.8,708.1,575.9,707.8Zm12.6,51.3c-.4-.1-.3.5-.3,1s.1.8.3.7.5-.4.4-1.1S588.7,759.1,588.5,759.1Zm-.5,10.4c.1,1.2.2,2.5.2,3.6s-.1.7.2.8.2-.2.1-.7S588.2,770.7,588,769.5Zm3.7-19c-.3-.2-.6-1.1-.8-.6s.2,1.5.1,2.3S591.5,751,591.7,750.5Zm7.7,15h0c.1-1.2.8-2.7.1-3.9C599.5,763,599.5,764.2,599.4,765.5Zm5.7,1.4c.1-1.9,1.1-4,.8-5.8C605.6,763,605.3,765,605.1,766.9ZM571.2,712l.3,2c0,.3-.2.7.2.7s.4-.2.6-.4.2-.5.1-.8A8.8,8.8,0,0,0,571.2,712Zm17,3.3c.7,0,1-.5,1.3-.9s0-.3-.1-.4-.8-.1-1.2.3a.1.1,0,0,0-.1.1.7.7,0,0,0-.5.9C587.8,715.7,588.1,715.3,588.2,715.3Zm12.4-14.7c.2.2,0,1.1.6.8s.7-1,.7-1.5-.6-.6-.9-.5S600.6,700.1,600.6,700.6Zm-14.1,30.2c-.1-.4-.2-1.1-.5-.9a1.7,1.7,0,0,0-.4,1.2c.1.4.3,1,.6.9S586.6,731.3,586.5,730.8Zm-1.7-54.2a2.4,2.4,0,0,0-.6,2.2c.1.3.3.7.8.3s.7-.4.5-.9A7.7,7.7,0,0,1,584.8,676.6Zm-2.2,6c.4-.2.9-.4.8-.9s-.9-.3-1.4-.2a.7.7,0,0,0-.5.9C581.6,682.9,582.2,682.7,582.6,682.6Zm18.8-7.5c-.1-.4-.2-.8-.7-.7a1,1,0,0,0-.7,1.1c.1.5.4.8.9.7S601.4,675.6,601.4,675.1Zm-48.5,17.5a9.6,9.6,0,0,0,0,1.7c.1.4.5.7,1.1.4s0-.6,0-.8S553.6,692.8,552.9,692.6Zm21.8,30.8a5.7,5.7,0,0,0-.1-1.9c0-.2,0-.5-.2-.5a1.1,1.1,0,0,0-.7.3c-.2.2.1.4.2.6Zm9.2-6.8c-.1-.3-.3-.6-.6-.5a1.2,1.2,0,0,0-.8,1.2c0,.4.4.4.6.3S583.9,717.3,583.9,716.6Zm-12.8-30.4a.8.8,0,0,0-.5.9c.2.5.6.5,1,.2s.9-.5.7-1S571.5,686.2,571.1,686.2ZM592,731.4c.1.3,0,.9.4.7s.5-.2.4-.7-.3-1.2-.6-1.2S592,730.9,592,731.4ZM583.2,714c-.2.1-.2.3-.1.5s1,1.1,1.4.9.3-.2.1-.4A1.7,1.7,0,0,0,583.2,714Zm4.5,52.1a7.8,7.8,0,0,0-.2-2.2q-.2-.6-.3-.3a.4.4,0,0,0-.1.5C587.5,764.6,587.4,765.5,587.7,766.1ZM571.6,739a1.2,1.2,0,0,0,0,1c.1.3.4.6.7.5s.1-.6,0-.9A.6.6,0,0,0,571.6,739Zm26.2-23.6a6,6,0,0,0,.2-2.3c0-.4,0-.7-.4-.6s-.3.4-.2.8A15.5,15.5,0,0,0,597.8,715.4Zm4.1,21c0-.2,0-.7-.3-.5s-.4.8-.5,1.4.1.5.3.4S601.9,737.2,601.9,736.4Zm-9.4-21.7v.3l1.1.7c.3.2.5,0,.5-.4s.1-.8-.3-.7Zm-7.6,11.9c.3-1.3.2-1.6-.6-1.7s-.3.2-.4.4.1.4.2.5S584.7,726.2,584.9,726.6Zm-28.8-33.4c1.4-.9,1.4-1.2-.2-2.1A14.9,14.9,0,0,1,556.1,693.2Zm19.5,69.4a15.5,15.5,0,0,0-.7-2.3A2,2,0,0,0,575.6,762.6Zm15.3-39.3,1-1.2c.1-.2.3-.3.3-.6s-.3-.3-.5-.4-.3.2-.4.4A14.9,14.9,0,0,0,590.9,723.3ZM580.1,719a1.4,1.4,0,0,0-1.4.6.9.9,0,0,0,.4,1.1Zm-13.7-5.7c-.2.1-.4.3-.2.6s.3.7.7.6.3-.4.2-.7S566.9,713.1,566.4,713.3Zm15.3,49.5c-.1-.2-.1-.8-.4-.6s-.3.2-.1.7.2.8.4.8S581.8,763.2,581.7,762.8Zm8.3-36.9c0,.6-.5,1.1-.1,1.7s.5,0,.6-.4S590.3,726.3,590,725.9Zm1.1-6.2c1.2,1.1,1.6,1.1,1.9-.1C592.4,720,591.9,719.8,591.1,719.7Zm7.4-9.3c0-.4-.3-.5-.5-.4a1.6,1.6,0,0,0-.7,1.2c-.1.4.2.4.4.3A1.5,1.5,0,0,0,598.5,710.4Zm-4.1,24.7a4.8,4.8,0,0,0,0,1.2c0,.3.1.6.3.5s.3,0,.3-.2-.1-.5-.1-.7S594.7,735.2,594.4,735.1Zm5.7,32.2c-.1,1.6-.5,3.2-.5,4.7C599.8,770.5,600,768.9,600.1,767.3Zm-9.8-89.5c-.3-.3-.7-.1-1.1,0s-.5.3-.4.6.4.5.8.3A1.1,1.1,0,0,0,590.3,677.8Zm15.6,40.7a3.6,3.6,0,0,0,.1,2.7A4.1,4.1,0,0,0,605.9,718.5Zm2.1,14.3c-.1-.3-.1-1-.4-1s-.2.5-.3.7,0,.9.3.9S608,733.3,608,732.8Zm-26.1-10.2c-.4.1-.8.4-.8.8s.5.7.9.7-.1-.5-.1-.7Zm-7.7-37.7a.5.5,0,0,0-.2.7c.2.4.6.4,1,.2a.5.5,0,0,0,.3-.7C575.1,684.8,574.7,684.8,574.2,684.9Zm32.1,42.2a1.3,1.3,0,0,0-.3,1c0,.3,0,.7.3.6s.5-.2.4-.7A1.1,1.1,0,0,0,606.3,727.1ZM552,697.4c-.1-.4-.6-.2-.9-.1a.7.7,0,0,0-.4.8c.1.4.5.1.8,0S552.1,697.8,552,697.4ZM583.8,764a8.2,8.2,0,0,0-.6-2.5A6.1,6.1,0,0,0,583.8,764Zm-1.4-39.5c.4.3.7.9.9.5a3.9,3.9,0,0,0,.4-2.1C583.3,723.8,583.1,724.3,582.4,724.5Zm8.5,30c.1-.1.3-.1.3-.5s-.2-.5-.3-.5-.3.2-.3.6S590.7,754.5,590.9,754.5Zm-4.1-40.6a2.4,2.4,0,0,0,1.4-1.2C587.3,712.3,587.1,713,586.8,713.9Zm-.3,13.8c-.3.6-.3,1,.1,1.4s.2.2.3,0S586.8,728.1,586.5,727.7Zm5.1,1.1c-.2-.1-.2-.8-.5-.7a.7.7,0,0,0-.2.8c.1.4.3.6.5.5S591.7,729.2,591.6,728.8Zm13.1-.5c0-.4-.1-.7-.4-.7s-.3.5-.3.8.2.4.4.5S604.6,728.6,604.7,728.3ZM584.9,734a1.3,1.3,0,0,0-.1.9c.1.3.2.6.5.5s.2-.5.1-.8S585.2,734,584.9,734ZM572,743.6c-.1-.2-.2-.4-.3-.3s-.1.7-.1,1.1.2.2.3.1A.7.7,0,0,0,572,743.6Zm22,17.8c.2.3.4.3.5,0a2.1,2.1,0,0,0-.1-1.1A4.9,4.9,0,0,1,594,761.4Zm-22.3-25.5c-.2.3-.1.6-.1,1s.3.3.4.2.3-.3.2-.7Zm6.6-32.2h-1.2a1.7,1.7,0,0,0,.4,1.2A2.1,2.1,0,0,0,578.3,703.7Zm-6.7,37.5a1.7,1.7,0,0,0,0,1c.1.3.3.3.5.2s.1-.5-.1-.8S571.8,741.2,571.6,741.2Zm13.3-22.9a.6.6,0,0,0-.6-.4q-.4,0-.3.6c.1.3.2.6.5.6S584.8,718.6,584.9,718.3Zm11.6,21.5c-.3-.7-.3-1.4-.7-1.5a2,2,0,0,0-.1.5C595.6,739.6,596,739.6,596.5,739.8Z" transform="translate(-144.9 -289.4)"/><text class="cls-8" transform="translate(16.1 141.1)">AJOUTER</text><text class="cls-9" transform="translate(16.1 141.1)">AJOUTER</text></svg>